<svg width="500" height="737" viewBox="0 0 500 737" fill="none" xmlns="http://www.w3.org/2000/svg">
<path d="M255.644 635.872C382.1 647.157 388.1 469 322.112 430L153.612 430C41.9855 483 269.655 576.372 139.112 585.5C67.9862 590.473 83.2864 693.108 112.112 736.5C110.777 706.418 65.143 618.872 255.644 635.872Z" fill="#377DC7"/>
<path d="M458.334 308.334C458.334 423.393 365.06 561.112 250 561.112C134.941 561.112 41.6667 423.393 41.6667 308.334C41.6667 193.274 134.941 100 250 100C365.06 100 458.334 193.274 458.334 308.334Z" fill="#377DC7"/>
<path d="M401.692 166.737C234.53 213.271 129.338 278.741 55.1654 382.063C21.6 345.361 0 297.192 0 244.445C0 129.385 93.274 36.1112 208.333 36.1112C295.924 36.1112 370.89 90.1663 401.692 166.737Z" fill="#64E4AB"/>
<path d="M437.744 403.579C476.439 360.729 500 303.949 500 241.667C500 108.198 391.802 0 258.333 0C143.956 0 74.7756 49.9008 41.2903 120.181C212 156.431 315.479 238.694 437.952 403.101L437.744 403.579Z" fill="#49CC92"/>
<path d="M136 115.747L250.473 311.747L364 115.747H293.992L250.473 191.132L206.008 115.747H136Z" fill="white"/>
</svg>
